<?xml version="1.0" standalone="no"?>
<!DOCTYPE svg PUBLIC "-//W3C//DTD SVG 20010904//EN"
 "http://www.w3.org/TR/2001/REC-SVG-20010904/DTD/svg10.dtd">
<svg version="1.0" xmlns="http://www.w3.org/2000/svg"
 width="50.000000pt" height="50.000000pt" viewBox="0 0 50.000000 50.000000"
 preserveAspectRatio="xMidYMid meet">

<g transform="translate(0.000000,50.000000) scale(0.100000,-0.100000)"
fill="#000000" stroke="none">
<path d="M13 373 c-10 -36 -10 -210 0 -246 7 -26 11 -28 40 -22 32 7 101 36
125 53 12 8 12 13 1 30 -11 18 -20 20 -51 15 -25 -4 -38 -2 -38 6 0 6 10 11
23 11 13 0 32 7 43 15 19 15 19 15 0 30 -11 8 -30 15 -43 15 -13 0 -23 5 -23
11 0 8 13 10 37 6 27 -5 39 -2 49 11 8 9 14 20 14 23 0 8 -105 55 -142 64 -24
6 -28 3 -35 -22z"/>
<path d="M440 393 c-45 -16 -130 -57 -130 -62 0 -3 6 -14 14 -23 10 -13 22
-16 49 -11 24 4 37 2 37 -6 0 -6 -10 -11 -23 -11 -13 0 -32 -7 -43 -15 -19
-15 -19 -15 0 -30 11 -8 30 -15 43 -15 13 0 23 -5 23 -11 0 -8 -13 -10 -38 -6
-31 5 -40 3 -51 -15 -11 -17 -11 -22 1 -30 24 -17 93 -46 125 -53 29 -6 33 -4
40 22 10 36 10 210 0 246 -7 26 -17 31 -47 20z"/>
<path d="M190 301 c-5 -11 -10 -34 -10 -51 0 -55 15 -70 70 -70 39 0 52 4 60
19 13 25 13 77 0 102 -15 28 -105 28 -120 0z"/>
</g>
</svg>
